<svg xmlns="http://www.w3.org/2000/svg" viewBox="0 0 32 32" fill="none">
  <defs>
    <linearGradient id="gradient" x1="0%" y1="0%" x2="100%" y2="100%">
      <stop offset="0%" style="stop-color:#2563eb;stop-opacity:1" />
      <stop offset="100%" style="stop-color:#7c3aed;stop-opacity:1" />
    </linearGradient>
  </defs>
  <rect width="32" height="32" rx="6" fill="url(#gradient)"/>
  <path stroke="#ffffff" stroke-width="2" stroke-linecap="round" stroke-linejoin="round" 
        d="M16 8.253v13m0-13C14.832 7.477 13.246 7 11.5 7S8.168 7.477 7 8.253v13C8.168 20.477 9.754 20 11.5 20s3.332.477 4.5 1.253m0-13C17.168 7.477 18.754 7 20.5 7c1.746 0 3.332.477 4.5 1.253v13C23.832 20.477 22.246 20 20.5 20c-1.746 0-3.332.477-4.5 1.253" 
        fill="none"/>
</svg>
